<?xml version="1.0" standalone="no"?>
<!DOCTYPE svg PUBLIC "-//W3C//DTD SVG 20010904//EN"
 "http://www.w3.org/TR/2001/REC-SVG-20010904/DTD/svg10.dtd">
<svg version="1.0" xmlns="http://www.w3.org/2000/svg"
 width="512.000000pt" height="512.000000pt" viewBox="0 0 512.000000 512.000000"
 preserveAspectRatio="xMidYMid meet">
<metadata>
Created by potrace 1.14, written by Peter Selinger 2001-2017
</metadata>
<g transform="translate(0.000000,512.000000) scale(0.100000,-0.100000)"
fill="#000000" stroke="none">
<path d="M2608 4733 c-10 -2 -18 -8 -18 -13 0 -4 -9 -10 -19 -13 -14 -3 -18
-1 -14 9 7 20 -3 17 -38 -8 -24 -18 -44 -23 -102 -23 -40 -1 -75 3 -78 7 -3 5
-32 2 -64 -7 -33 -8 -75 -15 -95 -15 -19 0 -66 -11 -103 -24 -64 -22 -68 -22
-64 -5 3 11 1 19 -4 19 -5 0 -9 -4 -9 -10 0 -21 -108 -80 -184 -100 -129 -34
-204 -94 -255 -202 -13 -27 -28 -48 -34 -48 -16 0 -41 -56 -34 -75 4 -8 -1
-16 -11 -18 -16 -4 -16 -5 0 -6 14 -1 16 -7 11 -33 -3 -18 -10 -34 -15 -36 -4
-2 -8 -9 -8 -17 0 -7 -7 -18 -15 -25 -8 -7 -15 -21 -15 -31 0 -11 -6 -19 -13
-19 -8 0 -22 -9 -31 -19 -13 -15 -14 -20 -4 -24 10 -4 9 -9 -4 -20 -20 -16
-14 -27 16 -27 19 -1 19 -2 -4 -15 -14 -8 -20 -15 -15 -15 6 0 -1 -10 -14 -21
-19 -16 -22 -22 -12 -28 9 -6 10 -10 2 -12 -15 -5 -21 -67 -7 -72 7 -3 5 -11
-6 -24 -12 -13 -14 -23 -8 -29 6 -6 13 -37 15 -70 13 -157 23 -242 33 -262 5
-9 10 -48 11 -87 4 -147 10 -251 16 -275 3 -14 8 -41 11 -60 8 -49 22 -71 22
-35 0 15 4 30 9 34 5 3 9 15 10 26 2 89 26 244 42 281 17 38 19 57 14 117 -4
40 -7 84 -7 99 -1 14 -4 24 -8 21 -8 -4 -2 87 7 117 2 8 7 26 9 40 3 14 10 44
16 68 6 24 8 47 5 52 -3 5 -1 11 5 15 5 3 10 13 10 21 0 9 7 22 15 30 8 9 15
25 15 37 1 27 36 95 70 134 41 46 106 93 130 93 19 0 20 2 10 15 -11 13 -8 14
17 9 24 -5 35 0 59 23 25 25 34 28 66 22 30 -5 36 -3 27 7 -6 7 -18 10 -27 6
-15 -5 -15 -4 1 12 16 17 19 17 42 2 32 -21 37 -20 65 6 18 17 22 18 17 5 -3
-9 -2 -19 4 -23 6 -3 8 -12 5 -20 -7 -19 9 -18 25 3 12 14 12 16 0 8 -10 -5
-12 -4 -7 4 4 6 11 9 16 6 5 -3 11 -1 15 5 12 20 22 10 17 -17 -5 -25 -3 -26
10 -15 13 10 17 10 21 0 4 -10 7 -11 18 0 19 18 49 15 70 -9 9 -11 21 -21 26
-21 9 -1 15 -2 66 -16 20 -6 37 -8 37 -6 0 10 -57 30 -75 26 -15 -3 -17 -1 -9
7 8 8 32 10 80 4 61 -6 65 -8 34 -14 l-35 -6 41 -2 c23 0 55 4 72 10 17 6 39
9 49 7 13 -3 6 -10 -24 -22 -44 -19 -56 -36 -25 -36 10 0 27 -7 39 -15 15 -10
22 -12 25 -4 3 9 10 9 27 -1 18 -9 22 -9 16 0 -6 9 -2 9 14 1 18 -10 21 -9 22
6 0 11 3 13 6 6 2 -7 14 -13 24 -13 11 0 17 -4 14 -10 -3 -5 3 -10 15 -10 11
0 29 -5 39 -12 13 -8 29 -8 61 0 32 8 50 7 78 -3 21 -8 33 -14 27 -14 -5 -1 1
-7 14 -14 13 -6 31 -23 40 -36 16 -24 15 -24 -14 -18 -62 15 2 -18 92 -47 48
-16 102 -35 120 -42 17 -8 38 -14 46 -14 8 0 29 -13 47 -30 18 -16 36 -28 40
-25 4 3 13 -1 19 -9 6 -7 28 -21 48 -30 27 -12 44 -30 59 -61 17 -34 18 -42 6
-37 -11 4 -13 1 -7 -7 4 -7 8 -34 10 -59 2 -36 -2 -50 -16 -60 -11 -7 -16 -19
-12 -29 4 -9 -1 -21 -10 -27 -8 -7 -15 -19 -14 -27 2 -23 -15 -119 -21 -119
-3 0 -14 7 -24 17 -29 26 -21 1 12 -37 16 -19 29 -40 30 -46 0 -6 7 -17 16
-25 25 -20 51 -80 57 -131 6 -45 -7 -77 -16 -41 -4 17 -5 17 -6 0 0 -10 5 -20
12 -23 10 -3 12 -18 7 -54 -4 -28 -2 -50 2 -50 5 0 7 -21 5 -47 -3 -35 0 -53
12 -67 9 -11 11 -16 4 -13 -15 9 -23 -18 -19 -63 2 -19 -1 -46 -7 -60 -5 -14
-11 -41 -12 -60 -5 -45 -9 -71 -28 -148 -8 -34 -13 -62 -10 -62 3 0 0 -7 -7
-15 -7 -9 -10 -18 -7 -22 4 -3 1 -15 -5 -27 -7 -11 -13 -48 -14 -81 -3 -101
-16 -184 -30 -196 -16 -13 -19 -49 -5 -49 13 0 -7 -59 -26 -82 -8 -9 -12 -21
-9 -26 7 -12 -84 -193 -118 -233 -14 -17 -26 -35 -26 -41 0 -6 -8 -17 -17 -24
-16 -12 -16 -12 5 -7 13 3 22 1 22 -6 0 -6 -4 -11 -10 -11 -5 0 -10 -8 -10
-17 0 -15 -2 -16 -10 -3 -8 13 -11 11 -16 -7 -4 -13 -10 -21 -14 -18 -16 10
-19 -12 -4 -39 17 -34 18 -44 2 -28 -20 20 -31 14 -24 -14 5 -17 3 -23 -4 -19
-5 3 -13 -1 -16 -9 -3 -9 -13 -16 -21 -16 -9 0 -13 -6 -10 -14 3 -8 -3 -23
-14 -35 -19 -21 -42 -23 -67 -7 -11 6 -12 1 -9 -23 9 -53 -12 -35 -39 34 -7
19 -8 18 -12 -5 -2 -14 -8 -27 -12 -30 -5 -3 -11 -18 -14 -34 -7 -38 -9 -39
-33 -16 -25 23 -37 15 -21 -14 9 -18 9 -19 -3 -10 -16 13 -51 15 -43 3 2 -4
-5 -10 -16 -14 -11 -3 -20 -12 -20 -18 -1 -7 -7 -1 -15 13 -8 14 -14 19 -15
12 0 -7 -3 -11 -7 -9 -5 3 -9 -6 -10 -20 -1 -20 1 -23 9 -12 8 12 9 12 5 -1
-2 -8 -10 -15 -17 -15 -8 0 -17 -11 -21 -25 -7 -25 -7 -25 -8 4 -1 21 -5 27
-16 22 -11 -4 -15 1 -15 19 0 13 -5 27 -11 31 -7 4 -9 0 -5 -12 8 -28 -26
-128 -46 -132 -14 -2 -14 2 3 35 10 20 19 51 19 67 l0 29 -25 -23 c-13 -12
-22 -26 -20 -31 3 -4 2 -15 -1 -24 -6 -14 -9 -12 -21 11 -10 23 -12 24 -9 7 2
-13 0 -26 -5 -29 -5 -3 -9 4 -9 15 0 12 -4 21 -10 21 -17 0 -11 -29 9 -42 10
-6 17 -17 14 -25 -3 -7 -9 -11 -13 -8 -5 3 -16 -5 -24 -17 -9 -12 -16 -18 -16
-12 0 5 5 15 11 21 7 7 9 23 4 40 l-7 28 -13 -38 c-7 -21 -11 -48 -9 -60 2
-12 -2 -6 -10 13 -7 19 -11 38 -9 43 2 4 0 7 -6 7 -5 0 -12 -6 -14 -12 -4 -10
-6 -10 -6 0 -1 7 -5 10 -11 7 -14 -9 -13 8 2 23 9 9 9 12 0 12 -7 0 -22 -20
-33 -45 -21 -45 -47 -57 -57 -26 -3 10 0 12 12 8 11 -4 20 2 31 23 16 31 12
55 -11 64 -16 6 -19 -5 -4 -20 12 -12 1 -56 -12 -48 -5 3 -5 11 2 19 8 9 8 15
0 20 -5 3 -10 1 -10 -4 0 -6 -7 -11 -15 -11 -9 0 -15 -9 -15 -22 0 -21 0 -21
-15 -2 -14 18 -14 18 -15 -10 0 -50 -13 -19 -14 35 -1 31 -6 54 -13 56 -15 5
-33 -58 -22 -73 10 -12 0 -54 -13 -54 -5 0 -6 9 -3 20 4 13 0 31 -12 48 -10
15 -21 38 -25 52 -5 16 -6 8 -4 -22 3 -42 2 -46 -14 -38 -14 7 -16 20 -14 65
l3 56 -19 -23 c-16 -18 -21 -20 -29 -9 -6 9 -11 10 -15 2 -13 -21 -22 -11 -18
20 3 22 1 30 -7 25 -6 -4 -11 -18 -11 -32 0 -13 -5 -24 -11 -24 -7 0 -10 15
-7 39 2 22 0 37 -4 35 -5 -3 -8 -14 -8 -25 0 -10 -4 -19 -9 -19 -4 0 -6 12 -3
28 5 23 3 25 -10 14 -13 -10 -17 -10 -22 3 -3 9 -10 14 -15 11 -5 -3 -11 1
-15 9 -3 8 -12 15 -21 15 -8 0 -15 3 -15 8 0 7 -31 47 -70 88 -11 12 -20 26
-20 30 -1 13 -47 64 -58 64 -6 0 -13 12 -17 27 -5 20 -8 24 -15 13 -5 -8 -6
-18 -4 -22 3 -4 1 -8 -5 -8 -14 0 -19 22 -10 47 9 23 -3 39 -21 28 -5 -3 -10
-1 -10 5 0 6 -5 8 -10 5 -8 -5 -7 -11 1 -21 6 -7 15 -11 20 -8 5 3 9 -2 9 -10
0 -19 -11 -20 -30 -3 -8 6 -7 3 3 -9 9 -11 17 -26 17 -32 0 -7 4 -12 9 -12 18
0 34 -80 19 -91 -4 -3 1 -15 11 -26 11 -11 17 -24 14 -27 -4 -3 1 -14 11 -24
9 -11 15 -25 13 -33 -2 -8 -2 -11 0 -6 3 4 18 7 34 7 17 0 28 -4 24 -10 -3 -5
2 -17 12 -27 10 -10 17 -28 17 -41 -1 -12 5 -22 12 -22 13 0 19 13 15 34 -1 5
5 3 14 -4 12 -10 15 -23 11 -42 -3 -15 -1 -28 4 -28 6 0 10 5 10 10 0 6 8 10
17 10 13 0 14 -3 5 -12 -17 -17 -15 -33 3 -18 11 10 17 6 28 -22 8 -18 23 -42
34 -53 11 -11 17 -27 15 -34 -3 -8 0 -11 7 -7 7 5 11 -1 11 -16 0 -19 2 -20
11 -8 8 12 9 10 4 -8 -7 -25 21 -62 42 -55 6 2 14 -8 17 -24 5 -17 10 -23 15
-15 5 9 13 6 28 -10 12 -13 29 -29 38 -36 8 -7 12 -18 9 -24 -4 -7 -2 -8 5 -4
19 12 61 -2 61 -20 0 -10 6 -14 15 -10 8 3 21 -2 30 -10 8 -8 19 -12 25 -9 5
3 10 1 10 -6 0 -7 3 -9 7 -6 8 9 43 -22 43 -37 0 -6 18 -11 43 -11 23 0 48 -4
55 -9 9 -7 16 -6 22 3 5 9 10 10 14 2 4 -6 14 -11 22 -11 8 0 12 5 9 10 -9 14
9 12 24 -3 10 -10 11 -8 5 7 -6 16 -3 18 29 14 22 -2 37 0 37 7 0 5 7 1 16
-10 13 -17 16 -18 24 -5 5 8 10 19 10 23 0 4 8 3 18 -2 14 -7 21 -5 30 10 7
10 19 19 28 19 9 0 25 9 34 20 10 12 24 19 31 18 8 -2 13 3 11 10 -1 8 6 16
17 19 11 3 22 11 25 19 3 8 12 14 21 14 8 0 15 7 15 15 0 8 6 15 13 15 8 0 19
12 26 26 15 34 25 25 12 -10 -7 -16 -7 -26 -1 -26 5 0 12 11 16 25 3 13 14 27
23 30 9 3 18 17 19 31 3 33 11 46 24 38 6 -4 8 -2 4 4 -10 17 25 32 45 19 26
-16 63 13 78 63 12 41 30 56 54 47 22 -8 32 -6 29 8 -1 7 2 16 8 20 5 3 10 1
10 -6 0 -9 3 -10 11 -2 8 8 7 17 -3 33 -10 18 -10 24 0 27 6 3 10 9 6 14 -7
12 15 75 43 122 34 55 67 47 68 -18 0 -19 5 -29 13 -28 9 2 12 -20 13 -85 1
-92 21 -181 30 -132 3 14 1 75 -3 135 -9 124 -14 408 -8 503 2 42 9 69 22 84
10 11 18 26 18 32 0 6 -5 3 -11 -6 -5 -10 -15 -18 -21 -18 -7 0 -6 5 2 15 7 8
9 22 6 31 -8 21 4 85 14 79 5 -3 6 4 3 15 -4 17 0 20 23 20 29 0 65 19 114 59
30 24 24 26 -16 7 -16 -8 -41 -18 -56 -21 -23 -6 -27 -3 -33 24 -6 28 -4 49
12 141 2 14 15 48 29 77 25 53 36 139 12 98 -11 -19 -11 -19 -18 0 -7 20 -4
97 6 124 3 10 7 11 18 2 11 -10 16 -8 24 5 6 11 17 15 31 11 22 -5 22 -8 6 65
-4 22 6 46 49 115 66 107 98 143 127 143 18 0 19 2 9 15 -21 25 -57 18 -83
-17 -13 -18 -48 -78 -78 -133 -33 -61 -55 -93 -57 -82 -2 9 -8 17 -14 17 -6 0
-7 15 -3 41 5 29 4 39 -4 35 -7 -5 -9 3 -4 26 10 57 44 139 56 137 26 -3 37 2
37 16 0 8 4 15 9 15 9 0 27 57 23 74 -2 4 2 14 8 21 6 8 7 16 2 19 -5 3 -6 24
-2 48 5 24 6 46 4 49 -4 7 14 113 23 139 4 8 5 22 4 30 -1 8 3 38 9 65 18 84
22 109 22 128 -1 9 -1 49 -1 87 0 39 0 78 0 88 0 29 -19 130 -26 142 -7 11
-11 33 -19 100 -1 14 -5 32 -9 40 -3 8 -13 58 -21 110 -19 111 -39 184 -63
219 -10 14 -17 32 -18 38 0 16 -53 73 -67 73 -5 0 -21 9 -35 20 -14 11 -34 20
-43 20 -10 0 -23 6 -29 14 -7 8 -24 17 -39 20 -41 10 -115 49 -129 68 -8 10
-35 19 -74 23 -38 5 -62 12 -66 22 -3 8 -11 12 -18 9 -8 -3 -16 2 -19 11 -4
10 -14 13 -31 9 -14 -3 -37 -9 -52 -12 -21 -6 -25 -4 -20 9 5 14 2 15 -18 7
-22 -9 -25 -7 -25 15 0 22 -3 24 -31 18 -23 -4 -34 -2 -40 9 -7 12 -17 14 -43
8 -18 -4 -40 -11 -47 -16 -10 -6 -10 -3 1 11 13 17 11 16 -21 -3 -47 -28 -52
-28 -67 8 -13 30 -20 32 -54 23z m39 -39 c-3 -3 -12 -4 -19 -1 -8 3 -5 6 6 6
11 1 17 -2 13 -5z m-497 -114 c0 -11 -58 -50 -74 -50 -8 0 63 59 72 60 1 0 2
-5 2 -10z m-135 -90 c-11 -5 -27 -9 -35 -9 -13 -1 -13 0 0 9 8 5 24 9 35 9
l20 0 -20 -9z m22 -16 c-3 -3 -12 -4 -19 -1 -8 3 -5 6 6 6 11 1 17 -2 13 -5z
m553 -55 c-27 -23 -132 -78 -115 -61 11 11 127 81 135 81 3 0 -6 -9 -20 -20z
m-320 -63 c0 -2 -7 -7 -16 -10 -8 -3 -12 -2 -9 4 6 10 25 14 25 6z m-155 -16
c-3 -5 -20 -19 -38 -30 -32 -22 -32 -22 3 9 37 32 45 37 35 21z m335 0 c-8 -5
-19 -10 -25 -10 -5 0 -3 5 5 10 8 5 20 10 25 10 6 0 3 -5 -5 -10z m276 -5 c-8
-8 -18 -15 -22 -15 -3 0 -1 7 6 15 7 8 17 15 22 15 5 0 3 -7 -6 -15z m-546
-30 c0 -2 -10 -9 -22 -15 -22 -11 -22 -10 -4 4 21 17 26 19 26 11z m360 1 c0
-2 -7 -7 -16 -10 -8 -3 -12 -2 -9 4 6 10 25 14 25 6z m-233 -21 c0 -8 -4 -12
-9 -9 -5 3 -6 10 -3 15 9 13 12 11 12 -6z m353 0 c-14 -8 -29 -14 -35 -14 -5
0 1 6 15 14 14 8 30 14 35 14 6 0 -1 -6 -15 -14z m-435 -5 c-3 -5 -11 -10 -16
-10 -6 0 -7 5 -4 10 3 6 11 10 16 10 6 0 7 -4 4 -10z m34 -13 c-2 -2 -22 -15
-44 -31 l-40 -27 35 30 c19 17 39 31 44 31 5 0 7 -1 5 -3z m400 -17 c-18 -10
-232 -50 -238 -44 -6 5 14 10 99 25 41 6 82 16 90 20 8 5 26 8 40 8 20 0 22
-1 9 -9z m129 -111 c-12 -7 -24 -7 -35 0 -15 9 -12 10 17 10 29 0 32 -1 18
-10z m-41 -35 c-3 -3 -12 -4 -19 -1 -8 3 -5 6 6 6 11 1 17 -2 13 -5z m210 -60
c-5 -5 -77 35 -77 42 0 3 18 -5 41 -16 23 -12 39 -24 36 -26z m158 -100 c53
-25 38 -34 -17 -10 -18 8 -50 18 -70 21 -21 3 -40 10 -43 14 -9 16 79 -1 130
-25z m-1570 -115 c-10 -15 -25 -10 -19 6 4 8 10 12 15 9 5 -3 7 -10 4 -15z
m-25 -48 c0 -11 3 -28 6 -38 5 -12 4 -15 -3 -8 -15 15 -25 65 -13 65 5 0 10
-9 10 -19z m1825 -2271 c3 -5 1 -10 -4 -10 -6 0 -11 5 -11 10 0 6 2 10 4 10 3
0 8 -4 11 -10z m-1621 -125 c16 -12 17 -15 4 -15 -8 0 -21 7 -28 15 -16 19 -1
19 24 0z m1143 -107 c-3 -8 -6 -5 -6 6 -1 11 2 17 5 13 3 -3 4 -12 1 -19z
m217 -152 c-6 -15 -24 -23 -24 -11 0 8 24 34 28 30 1 -1 0 -10 -4 -19z m-813
-69 c-10 -9 -11 -8 -5 6 3 10 9 15 12 12 3 -3 0 -11 -7 -18z m679 -2 c7 -8 8
-15 2 -15 -5 0 -15 7 -22 15 -7 8 -8 15 -2 15 5 0 15 -7 22 -15z"/>
<path d="M2036 4203 c-6 -14 -5 -15 5 -6 7 7 10 15 7 18 -3 3 -9 -2 -12 -12z"/>
<path d="M1950 3125 c10 -12 10 -15 1 -15 -7 0 -10 -8 -7 -18 4 -13 1 -19 -9
-19 -8 0 -15 4 -15 8 0 12 -43 18 -62 8 -10 -5 -18 -17 -18 -25 0 -10 -6 -14
-15 -10 -8 3 -25 2 -37 -3 -16 -6 -4 -9 47 -14 58 -4 74 -2 96 14 22 15 37 18
75 12 27 -3 42 -8 34 -11 -8 -2 -28 -10 -45 -18 -16 -7 -56 -18 -88 -23 -78
-14 -140 -43 -163 -75 -11 -15 -30 -40 -42 -57 -13 -16 -19 -29 -14 -29 6 0
21 14 34 31 48 63 69 77 149 99 65 17 98 20 167 16 48 -3 101 -9 119 -15 27
-8 31 -7 26 6 -5 12 -1 14 18 9 13 -3 0 6 -29 19 -32 15 -56 34 -59 45 -4 16
-8 18 -19 9 -11 -9 -14 -8 -14 5 0 9 -8 16 -21 16 -13 0 -18 4 -13 12 4 7 3 8
-4 4 -7 -4 -20 -2 -29 3 -13 7 -14 10 -4 11 28 0 0 14 -35 16 -31 3 -34 1 -24
-11z"/>
<path d="M2050 3126 c0 -2 7 -7 16 -10 8 -3 12 -2 9 4 -6 10 -25 14 -25 6z"/>
<path d="M2760 3096 c-80 -15 -95 -22 -79 -42 9 -11 8 -14 -4 -14 -8 0 -20 -6
-26 -14 -7 -8 -25 -17 -40 -21 -48 -10 -111 -89 -111 -137 1 -21 2 -20 14 7
20 43 43 71 52 62 4 -4 2 -13 -4 -19 -37 -37 12 -24 83 22 50 32 75 42 75 29
0 -5 18 0 39 11 62 31 186 23 274 -18 44 -20 70 -39 76 -54 5 -13 7 -25 5 -27
-1 -2 -27 12 -56 30 -45 28 -65 34 -133 39 -86 6 -126 -4 -180 -45 -16 -12
-40 -25 -52 -29 -20 -6 -53 -36 -40 -36 7 0 76 37 130 69 20 13 37 21 38 19 0
-1 2 -18 4 -37 4 -46 34 -72 87 -78 40 -5 47 -2 66 22 12 15 22 36 22 46 0 11
5 19 10 19 15 0 52 -39 45 -49 -2 -5 4 -11 15 -14 12 -3 20 -14 20 -25 0 -18
18 -32 41 -32 5 0 9 9 9 20 0 14 7 20 21 20 11 0 18 -4 15 -8 -3 -5 9 -9 27
-10 l31 -1 -40 18 c-35 16 -54 36 -54 57 0 3 15 -6 33 -20 53 -41 53 -30 -1
22 -39 38 -49 54 -45 73 3 20 -5 30 -44 57 -52 35 -79 41 -69 17 3 -9 0 -15
-9 -15 -10 0 -12 6 -8 18 6 14 4 15 -9 4 -17 -14 -34 0 -23 18 3 6 0 10 -8 10
-8 0 -20 7 -27 15 -7 8 -17 12 -22 9 -6 -4 -13 -2 -17 3 -11 17 -64 20 -131 9z
m167 -62 c-9 -9 -28 6 -21 18 4 6 10 6 17 -1 6 -6 8 -13 4 -17z m-17 -130 c0
-9 -5 -14 -12 -12 -18 6 -21 28 -4 28 9 0 16 -7 16 -16z"/>
<path d="M3336 3030 c-3 -23 -10 -39 -15 -36 -5 3 -11 -8 -13 -25 -5 -33 6
-48 16 -22 5 12 9 14 14 6 4 -6 8 18 10 53 3 73 -2 83 -12 24z"/>
<path d="M3157 3008 c-2 -7 8 -24 22 -38 29 -28 91 -38 91 -15 0 9 -6 12 -15
9 -11 -5 -13 -2 -9 10 3 9 1 16 -5 16 -6 0 -11 8 -11 17 0 15 -2 15 -14 -2
-13 -18 -15 -18 -30 -2 -21 20 -23 21 -29 5z"/>
<path d="M1843 2947 c-46 -24 -113 -82 -113 -97 0 -26 48 0 95 49 23 24 37 32
50 28 14 -6 15 -10 5 -22 -9 -11 -8 -21 6 -45 18 -29 21 -30 73 -26 60 5 80
19 90 65 l6 32 34 -26 c19 -14 41 -25 48 -25 7 0 13 -4 13 -10 0 -5 5 -10 10
-10 22 0 8 17 -32 39 -24 12 -63 34 -88 47 -58 32 -138 32 -197 1z m121 -13
c8 -3 12 -12 10 -19 -7 -17 -34 -8 -34 11 0 16 2 16 24 8z m56 -65 c0 -5 -4
-9 -10 -9 -5 0 -10 7 -10 16 0 8 5 12 10 9 6 -3 10 -10 10 -16z"/>
<path d="M1256 2892 c-2 -4 11 -12 30 -18 39 -12 40 -12 18 10 -17 17 -40 21
-48 8z"/>
<path d="M2612 2365 c6 -14 13 -24 14 -22 6 6 -9 47 -17 47 -5 0 -3 -11 3 -25z"/>
<path d="M3659 2353 c-13 -16 -12 -17 4 -4 16 13 21 21 13 21 -2 0 -10 -8 -17
-17z"/>
<path d="M2510 2262 c-14 -2 -41 -18 -60 -36 -38 -35 -79 -56 -110 -56 -10 0
-40 18 -65 40 -52 45 -68 48 -109 21 l-28 -19 27 -18 c22 -14 31 -15 46 -6 21
13 59 16 59 5 0 -13 65 -80 91 -94 29 -15 89 -19 89 -5 0 10 15 -1 16 -12 3
-29 27 -92 34 -92 12 0 13 17 1 22 -9 3 -21 108 -12 105 3 -1 7 2 8 6 3 14 36
35 48 31 5 -2 30 7 55 19 38 18 45 27 48 55 3 33 -6 40 -24 22 -8 -8 -23 -7
-50 2 -21 7 -50 12 -64 10z"/>
<path d="M3647 2213 c-4 -3 -7 -11 -7 -17 0 -6 5 -5 12 2 6 6 9 14 7 17 -3 3
-9 2 -12 -2z"/>
<path d="M2510 2105 c0 -5 5 -17 10 -25 5 -8 10 -10 10 -5 0 6 -5 17 -10 25
-5 8 -10 11 -10 5z"/>
<path d="M2410 2067 c0 -19 30 -77 39 -77 17 0 13 13 -14 50 -14 19 -25 31
-25 27z"/>
<path d="M2631 2043 c-1 -18 21 -63 31 -63 12 0 10 18 -3 25 -6 4 -14 17 -19
29 -5 11 -9 16 -9 9z"/>
<path d="M2247 2032 c-5 -6 -6 -16 -3 -21 3 -5 -1 -14 -9 -21 -8 -7 -15 -17
-15 -23 0 -7 4 -7 12 1 8 8 17 8 31 1 15 -9 18 -8 12 2 -5 7 -11 26 -14 43 -5
20 -9 27 -14 18z"/>
<path d="M2537 2034 c-3 -3 10 -27 30 -52 46 -61 47 -62 32 -27 -7 17 -22 37
-32 46 -11 9 -17 21 -13 28 7 11 -6 16 -17 5z"/>
<path d="M2293 1993 c0 -7 6 -13 12 -13 7 0 17 6 23 13 8 9 5 12 -12 12 -13 0
-23 -6 -23 -12z"/>
<path d="M2610 1981 c0 -23 4 -29 15 -25 11 5 13 10 5 19 -5 6 -7 14 -4 17 3
3 1 9 -5 13 -7 4 -11 -5 -11 -24z"/>
<path d="M2186 1985 c-3 -8 -1 -15 4 -15 6 0 10 7 10 15 0 8 -2 15 -4 15 -2 0
-6 -7 -10 -15z"/>
<path d="M2882 1978 c5 -15 28 -23 28 -10 0 5 -7 13 -16 16 -10 4 -14 1 -12
-6z"/>
<path d="M2690 1969 c0 -14 22 -30 60 -42 8 -3 -8 -6 -36 -6 -28 -1 -66 -4
-85 -8 -27 -5 -30 -8 -14 -13 14 -5 0 -11 -45 -19 -54 -10 -71 -10 -100 2 -23
10 -42 12 -58 6 -52 -20 -287 -34 -307 -18 -6 4 -28 9 -50 11 -36 3 -40 5 -36
28 1 14 8 28 15 32 6 4 7 8 2 8 -10 0 -76 -70 -76 -81 0 -25 190 -40 455 -36
131 2 229 0 217 -4 -12 -5 -22 -15 -22 -23 0 -7 -11 -17 -25 -20 -14 -4 -25
-13 -25 -22 0 -8 -4 -13 -9 -10 -13 8 -101 -31 -101 -45 0 -8 4 -8 15 1 12 10
15 10 15 -4 0 -22 20 -20 86 9 61 27 89 32 78 13 -4 -7 -3 -8 4 -4 6 4 9 13 6
21 -7 18 138 115 172 115 36 0 47 30 22 58 -12 12 -16 22 -10 22 7 0 12 -5 12
-10 0 -15 43 -30 55 -19 10 10 -55 70 -68 62 -4 -2 -5 -9 -2 -14 3 -5 -2 -6
-11 -2 -13 5 -15 3 -9 -8 7 -12 6 -12 -7 -1 -10 8 -19 9 -22 3 -7 -11 -77 8
-88 24 -5 6 -8 4 -8 -6z m201 -46 c13 -17 13 -17 -6 -3 -11 8 -22 16 -24 17
-2 2 0 3 6 3 6 0 17 -8 24 -17z"/>
<path d="M3057 1865 c-11 -52 -59 -145 -113 -219 -51 -69 -60 -111 -13 -56 83
97 143 221 137 284 -3 30 -3 30 -11 -9z"/>
<path d="M2453 1653 c-13 -2 -23 -10 -23 -18 0 -8 7 -11 20 -8 11 3 20 10 20
15 0 6 9 8 20 5 11 -3 18 -1 14 4 -5 9 -12 9 -51 2z"/>
<path d="M2346 1641 c-3 -5 10 -9 29 -9 19 0 38 4 41 9 3 5 -11 9 -30 9 -19 0
-37 -4 -40 -9z"/>
<path d="M3362 1340 c0 -14 2 -19 5 -12 2 6 2 18 0 25 -3 6 -5 1 -5 -13z"/>
<path d="M2381 1254 c0 -11 3 -14 6 -6 3 7 2 16 -1 19 -3 4 -6 -2 -5 -13z"/>
<path d="M1776 1223 c-6 -14 -5 -15 5 -6 7 7 10 15 7 18 -3 3 -9 -2 -12 -12z"/>
<path d="M2370 1220 c0 -5 5 -10 11 -10 5 0 7 5 4 10 -3 6 -8 10 -11 10 -2 0
-4 -4 -4 -10z"/>
<path d="M2152 1200 c0 -14 2 -19 5 -12 2 6 2 18 0 25 -3 6 -5 1 -5 -13z"/>
<path d="M2230 1195 c0 -9 6 -12 15 -9 8 4 15 10 15 15 0 5 -7 9 -15 9 -8 0
-15 -7 -15 -15z"/>
<path d="M3637 933 c31 -49 62 -95 70 -104 12 -15 4 -41 -68 -215 -45 -110
-97 -233 -116 -274 -38 -81 -123 -307 -123 -327 0 -10 179 -13 860 -13 l860 0
0 58 0 57 -212 114 c-137 73 -285 143 -419 196 -123 50 -224 97 -250 117 -215
165 -249 197 -378 357 -65 81 -74 88 -161 106 -129 27 -128 28 -63 -72z"/>
<path d="M1786 813 c-3 -16 -9 -39 -12 -53 -7 -25 -7 -25 14 -6 14 12 22 31
22 53 0 40 -15 44 -24 6z"/>
<path d="M1586 575 c-80 -106 -95 -121 -189 -181 -56 -36 -111 -74 -122 -84
-11 -10 -147 -82 -302 -160 -156 -77 -283 -143 -283 -146 0 -2 193 -4 428 -4
l429 0 31 113 c17 61 36 157 42 212 6 55 20 141 30 190 23 109 33 175 28 175
-2 0 -44 -52 -92 -115z"/>
<path d="M1793 570 c0 -25 2 -35 4 -22 2 12 2 32 0 45 -2 12 -4 2 -4 -23z"/>
</g>
</svg>
