<svg width="24" height="24" viewBox="0 0 24 24" fill="none" xmlns="http://www.w3.org/2000/svg">
<path d="M12 0C8.81812 0 5.76375 1.26506 3.51562 3.51469C1.26518 5.76521 0.000623381 8.81734 0 12C0 15.1813 1.26562 18.2357 3.51562 20.4853C5.76375 22.7349 8.81812 24 12 24C15.1819 24 18.2362 22.7349 20.4844 20.4853C22.7344 18.2357 24 15.1813 24 12C24 8.81869 22.7344 5.76431 20.4844 3.51469C18.2362 1.26506 15.1819 0 12 0Z" fill="url(#paint0_linear_40_27)"/>
<path d="M5.32901 11.6494C8.76174 10.1254 11.0502 9.1206 12.1945 8.63516C15.4653 7.24898 16.1441 7.00823 16.5875 7.00007C16.685 6.99848 16.9021 7.02304 17.0437 7.13976C17.1615 7.2382 17.1946 7.37132 17.2111 7.46479C17.2258 7.55816 17.2461 7.77098 17.2295 7.9371C17.0529 9.8346 16.2858 14.4392 15.8958 16.5645C15.7321 17.4638 15.4065 17.7653 15.0919 17.7947C14.4075 17.8589 13.8888 17.3342 13.2265 16.8919C12.1908 16.1995 11.6058 15.7686 10.5995 15.093C9.43688 14.3123 10.1911 13.8831 10.8534 13.1819C11.0263 12.9983 14.0396 10.2055 14.0966 9.95216C14.104 9.92048 14.1114 9.80235 14.0415 9.7401C13.9734 9.67766 13.8722 9.69904 13.7986 9.71591C13.6938 9.73991 12.0399 10.8552 8.83165 13.0615C8.36254 13.3904 7.93759 13.5507 7.55495 13.5422C7.13552 13.533 6.32608 13.3 5.72453 13.1009C4.98868 12.8565 4.40184 12.7274 4.45335 12.3124C4.4791 12.0964 4.7716 11.8754 5.32901 11.6494Z" fill="white"/>
<defs>
<linearGradient id="paint0_linear_40_27" x1="12" y1="0" x2="12" y2="24" gradientUnits="userSpaceOnUse">
<stop stop-color="#2AABEE"/>
<stop offset="1" stop-color="#229ED9"/>
</linearGradient>
</defs>
</svg>
